<?xml version="1.0" encoding="UTF-8" standalone="no"?>
<!-- Created with Inkscape (http://www.inkscape.org/) -->

<svg
   width="63.585209mm"
   height="58.511173mm"
   viewBox="0 0 63.585209 58.511173"
   version="1.1"
   id="svg1"
   xmlns="http://www.w3.org/2000/svg"
   xmlns:svg="http://www.w3.org/2000/svg">
  <defs
     id="defs1" />
  <g
     id="layer1"
     transform="translate(-15.111091,-115.89174)">
    <path
       style="fill:none;fill-rule:evenodd;stroke:#b6e6ff;stroke-width:6;stroke-dasharray:none;stroke-opacity:1"
       id="path6"
       d="m 34.697422,134.40686 c 1.629798,1.79461 -1.615016,3.08233 -2.982763,2.70883 -3.706509,-1.01217 -4.077825,-5.84001 -2.434899,-8.67436 2.938809,-5.06997 9.94975,-5.34306 14.365952,-2.16096 6.480953,4.66985 6.648928,14.11637 1.887034,20.05754 -6.346856,7.91866 -18.303329,7.97229 -25.74914,1.61311 -9.369794,-8.00239 -9.30474,-22.50002 -1.33917,-31.44074 9.647374,-10.8284 26.702195,-10.64246 37.132329,-1.06524 12.291551,11.28643 11.983491,30.9078 0.791305,42.82393 C 43.446248,172.02661 21.252391,171.5957 7.852553,158.78634 -7.373195,144.23153 -6.8189588,119.46117 7.6091126,104.57923 23.795228,87.883935 51.144937,88.561813 67.507818,104.60972 c 18.165899,17.81622 17.364156,47.74736 -0.304425,65.5903"
       transform="matrix(0.70491296,0,0,0.70491296,19.621109,52.938731)" />
  </g>
</svg>
